<svg xmlns="http://www.w3.org/2000/svg" id="building" width="33.792" height="33.743" viewBox="0 0 33.792 33.743">
  <path id="Path_8934" data-name="Path 8934" d="M16.784,6.455,9.31,2.76C5.277.786,1.971,2.794,1.971,7.214V32.251a3.536,3.536,0,0,0,3.56,3.492H18.049a1.692,1.692,0,0,0,1.687-1.687V11.128A5.738,5.738,0,0,0,16.784,6.455Zm-3,15.37H7.926a1.265,1.265,0,0,1,0-2.531h5.854a1.265,1.265,0,0,1,0,2.531Zm0-6.748H7.926a1.265,1.265,0,1,1,0-2.531h5.854a1.265,1.265,0,0,1,0,2.531Z" transform="translate(-1.971 -2)" fill="#7c8191"/>
  <path id="Path_8935" data-name="Path 8935" d="M27.5,18.039V20.5a4.219,4.219,0,0,1-4.218,4.218H15.637A1.627,1.627,0,0,1,14,23.084V19.439a6.937,6.937,0,0,0,5.078-1.4,6.71,6.71,0,0,0,8.419,0Z" transform="translate(6.295 9.021)" fill="#7c8191"/>
  <path id="Path_8936" data-name="Path 8936" d="M27.5,17.836v.017a4.213,4.213,0,0,1-8.419-.236A4.246,4.246,0,0,1,14,21.751v-9.06a1.691,1.691,0,0,1,2.058-1.653l3.02.675.81.186,3.442.776a6.565,6.565,0,0,1,2.244.877.017.017,0,0,0,.017.017,3.665,3.665,0,0,1,.489.4,5.338,5.338,0,0,1,1.4,3.56C27.48,17.634,27.5,17.735,27.5,17.836Z" transform="translate(6.295 4.181)" fill="#7c8191"/>
</svg>