<svg xmlns="http://www.w3.org/2000/svg" width="16" height="14.864" viewBox="0 0 16 14.864">
  <g id="Iconly_Light-Outline_Wallet" data-name="Iconly/Light-Outline/Wallet" transform="translate(-2 -3)">
    <g id="Wallet" transform="translate(2 3)">
      <path id="Combined-Shape" d="M11.351,0A4.654,4.654,0,0,1,16,4.65v5.564a4.655,4.655,0,0,1-4.649,4.65h-6.7A4.655,4.655,0,0,1,0,10.214V4.65A4.655,4.655,0,0,1,4.649,0Zm0,1.163h-6.7A3.491,3.491,0,0,0,1.162,4.65v5.564A3.491,3.491,0,0,0,4.649,13.7h6.7a3.49,3.49,0,0,0,3.486-3.487V10H12.28a2.668,2.668,0,1,1,0-5.335h2.557V4.65A3.49,3.49,0,0,0,11.351,1.163Zm3.486,4.661H12.28a1.5,1.5,0,1,0,0,3.009h2.557Zm-2.2.876a.581.581,0,0,1,0,1.163h-.242a.581.581,0,1,1,0-1.163ZM8.283,3.518a.581.581,0,0,1,0,1.163H4.1a.581.581,0,0,1,0-1.163Z" transform="translate(0 0)" fill="#fff"/>
    </g>
  </g>
</svg>