<svg xmlns="http://www.w3.org/2000/svg" width="16" height="18.595" viewBox="0 0 16 18.595">
  <g id="receipt-2" transform="translate(-2.75 -1.25)">
    <path id="Path_8947" data-name="Path 8947" d="M10.75,19.845a2.243,2.243,0,0,1-1.782-.951l-.874-1.168a.935.935,0,0,0-.683-.4.968.968,0,0,0-.726.32l-.493-.441.476.441C5.422,18.98,4.462,18.876,4,18.694S2.75,17.916,2.75,16V6.258c0-3.84,1.107-5.008,4.731-5.008h6.538c3.624,0,4.731,1.168,4.731,5.008V16c0,1.911-.787,2.508-1.254,2.7s-1.41.285-2.664-1.046a.89.89,0,0,0-.735-.32.951.951,0,0,0-.692.4l-.874,1.168A2.243,2.243,0,0,1,10.75,19.845ZM7.36,16.022h.112a2.231,2.231,0,0,1,1.652.917L10,18.106a.875.875,0,0,0,1.5,0l.874-1.168a2.173,2.173,0,0,1,3.408-.182c.657.7,1.081.787,1.237.726.208-.086.432-.588.432-1.488V6.258c0-3.122-.545-3.71-3.434-3.71H7.481c-2.889,0-3.434.588-3.434,3.71V16c0,.908.225,1.41.432,1.488.147.061.579-.026,1.237-.726A2.307,2.307,0,0,1,7.36,16.022Z" fill="#fff"/>
    <path id="Path_8948" data-name="Path 8948" d="M15.386,11.547H10.629a.649.649,0,1,1,0-1.3h4.757a.649.649,0,1,1,0,1.3Z" transform="translate(-0.977 -1.216)" fill="#fff"/>
    <path id="Path_8949" data-name="Path 8949" d="M15.386,7.547H10.629a.649.649,0,1,1,0-1.3h4.757a.649.649,0,1,1,0,1.3Z" transform="translate(-0.977 -0.676)" fill="#fff"/>
    <path id="Path_8950" data-name="Path 8950" d="M7.644,7.73a.865.865,0,1,1,.865-.865A.867.867,0,0,1,7.644,7.73Z" transform="translate(-0.545 -0.642)" fill="#fff"/>
    <path id="Path_8951" data-name="Path 8951" d="M7.644,11.73a.865.865,0,1,1,.865-.865A.867.867,0,0,1,7.644,11.73Z" transform="translate(-0.545 -1.182)" fill="#fff"/>
  </g>
</svg>