<svg xmlns="http://www.w3.org/2000/svg" width="16" height="15.26" viewBox="0 0 16 15.26">
  <g id="Iconly_Light-Outline_2-User" data-name="Iconly/Light-Outline/2-User" transform="translate(-2 -2)">
    <g id="_2-User" data-name="2-User" transform="translate(2 2)">
      <path id="Combined-Shape" d="M6.08,9.575c2.61,0,6.08.294,6.08,2.836,0,2.678-4.043,2.839-5.778,2.849h-.63C3.9,15.251,0,15.091,0,12.428,0,9.746,4.043,9.586,5.777,9.576h.3Zm0,1.2c-2.225,0-4.879.286-4.879,1.651,0,1.083,1.642,1.632,4.879,1.632s4.879-.555,4.879-1.648S9.316,10.777,6.08,10.777Zm7.3-1.575C15.546,9.526,16,10.529,16,11.313a1.914,1.914,0,0,1-1.456,1.83.6.6,0,1,1-.426-1.123c.681-.258.681-.573.681-.707,0-.454-.537-.765-1.6-.923a.6.6,0,0,1-.506-.683A.61.61,0,0,1,13.379,9.2ZM6.08,0a4.117,4.117,0,0,1,4.112,4.112A4.1,4.1,0,0,1,6.107,8.224H6.08A4.112,4.112,0,1,1,6.08,0Zm5.676.9a3.241,3.241,0,0,1-.074,6.407.593.593,0,0,1-.084.006.6.6,0,0,1-.083-1.2,2.039,2.039,0,0,0,.047-4.031A.6.6,0,0,1,11.755.9ZM6.08,1.2a2.911,2.911,0,1,0,0,5.822H6.1A2.9,2.9,0,0,0,8.991,4.115,2.915,2.915,0,0,0,6.08,1.2Z" transform="translate(0 0)" fill="#fff"/>
    </g>
  </g>
</svg>