<svg xmlns="http://www.w3.org/2000/svg" width="16" height="18.422" viewBox="0 0 16 18.422">
  <g id="shield-tick" transform="translate(-2.65 -1.252)">
    <path id="Path_8952" data-name="Path 8952" d="M10.659,19.674a4.36,4.36,0,0,1-2.587-.814L4.389,16.111a4.8,4.8,0,0,1-1.739-3.46V6.278A3.6,3.6,0,0,1,4.86,3.092l4.274-1.6a4.954,4.954,0,0,1,3.032,0l4.274,1.6a3.6,3.6,0,0,1,2.21,3.186v6.364a4.784,4.784,0,0,1-1.739,3.46l-3.683,2.749A4.223,4.223,0,0,1,10.659,19.674ZM9.588,2.7,5.314,4.3a2.347,2.347,0,0,0-1.37,1.987v6.364A3.541,3.541,0,0,0,5.16,15.083l3.683,2.749a3.275,3.275,0,0,0,3.64,0l3.683-2.749a3.524,3.524,0,0,0,1.216-2.433V6.278a2.369,2.369,0,0,0-1.37-1.987l-4.274-1.6A3.749,3.749,0,0,0,9.588,2.7Z" fill="#fff"/>
    <path id="Path_8953" data-name="Path 8953" d="M10.322,13.4a.635.635,0,0,1-.454-.188L8.489,11.831a.642.642,0,0,1,.908-.908l.925.925,3.229-3.229a.642.642,0,0,1,.908.908L10.776,13.21A.635.635,0,0,1,10.322,13.4Z" transform="translate(-0.811 -1.03)" fill="#fff"/>
  </g>
</svg>