<svg xmlns="http://www.w3.org/2000/svg" width="16" height="17.443" viewBox="0 0 16 17.443">
  <g id="receipt-edit" transform="translate(-2.77 -1.25)">
    <path id="Path_8942" data-name="Path 8942" d="M9.32,18.693a.623.623,0,0,1-.506-.253L7.963,17.3a.851.851,0,0,0-1.374-.076c-1.222,1.307-2.15,1.2-2.6,1.029S2.77,17.5,2.77,15.624V6.131c0-3.743,1.079-4.881,4.612-4.881h6.365c3.532,0,4.612,1.138,4.612,4.881V9.723a.632.632,0,0,1-1.265,0V6.131c0-3.043-.531-3.617-3.347-3.617H7.381c-2.816,0-3.347.573-3.347,3.617v9.493c0,.885.219,1.374.422,1.45.152.059.565-.025,1.206-.708a2.11,2.11,0,0,1,3.313.177l.86,1.138a.633.633,0,0,1-.126.885A.644.644,0,0,1,9.32,18.693Z" fill="#fff"/>
    <path id="Path_8943" data-name="Path 8943" d="M14.627,7.515H7.882a.632.632,0,0,1,0-1.265h6.744a.632.632,0,0,1,0,1.265Z" transform="translate(-0.703 -0.785)" fill="#fff"/>
    <path id="Path_8944" data-name="Path 8944" d="M13.941,11.515H8.882a.632.632,0,1,1,0-1.265h5.058a.632.632,0,0,1,0,1.265Z" transform="translate(-0.86 -1.412)" fill="#fff"/>
    <path id="Path_8945" data-name="Path 8945" d="M14.6,20.473a1.185,1.185,0,0,1-.843-.337,1.2,1.2,0,0,1-.32-1.037l.16-1.138a1.67,1.67,0,0,1,.43-.86l2.984-2.984a2.008,2.008,0,0,1,1.231-.658,1.909,1.909,0,0,1,1.534.658,1.9,1.9,0,0,1,.658,1.534,2.074,2.074,0,0,1-.658,1.231l-2.984,2.984a1.67,1.67,0,0,1-.86.43l-1.138.16A1.5,1.5,0,0,1,14.6,20.473Zm3.785-5.758H18.36a.885.885,0,0,0-.455.3l-2.984,2.984a.321.321,0,0,0-.067.143L14.7,19.192l1.054-.152a.468.468,0,0,0,.143-.076l2.985-2.984a.918.918,0,0,0,.3-.455c.017-.169-.152-.371-.3-.514A.86.86,0,0,0,18.386,14.715Z" transform="translate(-1.672 -1.915)" fill="#fff"/>
    <path id="Path_8946" data-name="Path 8946" d="M19.455,17.665a.544.544,0,0,1-.169-.025,3.353,3.353,0,0,1-2.31-2.31.64.64,0,0,1,.438-.784.628.628,0,0,1,.776.438,2.079,2.079,0,0,0,1.433,1.433.637.637,0,0,1,.438.784A.63.63,0,0,1,19.455,17.665Z" transform="translate(-2.226 -2.083)" fill="#fff"/>
  </g>
</svg>