<svg xmlns="http://www.w3.org/2000/svg" width="16" height="16" viewBox="0 0 16 16">
  <g id="Iconly_Light-Outline_Category" data-name="Iconly/Light-Outline/Category" transform="translate(-2 -2)">
    <g id="Category" transform="translate(2 2)">
      <path id="Combined-Shape" d="M3.487,9.026c3.339,0,3.487,1.132,3.487,3.487a4.094,4.094,0,0,1-.5,2.634c-.57.708-1.608.853-2.992.853S1.066,15.855.5,15.147A4.058,4.058,0,0,1,0,12.533l.615-.021H0C0,10.158.149,9.026,3.487,9.026Zm9.026,0c3.339,0,3.487,1.132,3.487,3.487a4.094,4.094,0,0,1-.5,2.634c-.57.708-1.608.853-2.992.853s-2.421-.145-2.992-.853a4.058,4.058,0,0,1-.5-2.613l.615-.021H9.026C9.026,10.158,9.174,9.026,12.513,9.026ZM3.656,10.257H3.487c-2.141,0-2.25.154-2.256,1.95v.7a2.783,2.783,0,0,0,.222,1.469c.217.269.863.394,2.034.394s1.817-.126,2.034-.395a3.7,3.7,0,0,0,.222-1.842C5.744,10.481,5.744,10.266,3.656,10.257Zm9.026,0h-.169c-2.141,0-2.25.154-2.256,1.95v.7a2.783,2.783,0,0,0,.222,1.469c.217.269.863.394,2.034.394s1.817-.126,2.034-.395a3.7,3.7,0,0,0,.222-1.842C14.769,10.481,14.769,10.266,12.682,10.257ZM3.487,0C6.826,0,6.974,1.132,6.974,3.487a4.094,4.094,0,0,1-.5,2.634c-.57.708-1.608.853-2.992.853S1.066,6.829.5,6.121A4.058,4.058,0,0,1,0,3.508l.615-.021H0C0,1.132.149,0,3.487,0Zm9.026,0C15.851,0,16,1.132,16,3.487a4.094,4.094,0,0,1-.5,2.634c-.57.708-1.608.853-2.992.853s-2.421-.145-2.992-.853a4.058,4.058,0,0,1-.5-2.613l.615-.021H9.026C9.026,1.132,9.174,0,12.513,0ZM3.656,1.231H3.487c-2.141,0-2.25.154-2.256,1.95v.7A2.783,2.783,0,0,0,1.453,5.35c.217.269.863.394,2.034.394S5.3,5.618,5.521,5.349a3.7,3.7,0,0,0,.222-1.842C5.744,1.455,5.744,1.241,3.656,1.231Zm9.026,0h-.169c-2.141,0-2.25.154-2.256,1.95v.7a2.783,2.783,0,0,0,.222,1.469c.217.269.863.394,2.034.394s1.817-.126,2.034-.395a3.7,3.7,0,0,0,.222-1.842C14.769,1.455,14.769,1.241,12.682,1.231Z" fill="#fff"/>
    </g>
  </g>
</svg>