<svg xmlns="http://www.w3.org/2000/svg" width="16" height="16" viewBox="0 0 16 16">
  <g id="money-send" transform="translate(-1.25 -1.25)">
    <g id="Group_7344" data-name="Group 7344">
      <path id="Path_8954" data-name="Path 8954" d="M11.95,14.073h-1.4a1.835,1.835,0,0,1-1.8-1.86.558.558,0,1,1,1.116,0,.716.716,0,0,0,.685.744h1.4a.552.552,0,0,0,.521-.58c0-.4-.112-.461-.365-.551l-2.24-.781A1.526,1.526,0,0,1,8.75,9.437a1.675,1.675,0,0,1,1.637-1.7h1.4a1.835,1.835,0,0,1,1.8,1.86.558.558,0,1,1-1.116,0,.716.716,0,0,0-.685-.744h-1.4a.552.552,0,0,0-.521.58c0,.4.112.461.365.551l2.24.781a1.526,1.526,0,0,1,1.116,1.607A1.67,1.67,0,0,1,11.95,14.073Z" transform="translate(-1.918 -1.66)" fill="#fff"/>
      <path id="Path_8955" data-name="Path 8955" d="M11.808,14.564a.562.562,0,0,1-.558-.558v-6.7a.558.558,0,1,1,1.116,0v6.7A.562.562,0,0,1,11.808,14.564Z" transform="translate(-2.558 -1.407)" fill="#fff"/>
    </g>
    <path id="Path_8956" data-name="Path 8956" d="M9.25,17.25a8,8,0,0,1,0-16,.558.558,0,0,1,0,1.116A6.884,6.884,0,1,0,16.134,9.25a.558.558,0,0,1,1.116,0A8.007,8.007,0,0,1,9.25,17.25Z" fill="#fff"/>
    <path id="Path_8957" data-name="Path 8957" d="M20.785,5.343a.562.562,0,0,1-.558-.558V2.366H17.808a.558.558,0,1,1,0-1.116h2.977a.562.562,0,0,1,.558.558V4.785A.562.562,0,0,1,20.785,5.343Z" transform="translate(-4.093)" fill="#fff"/>
    <path id="Path_8958" data-name="Path 8958" d="M16.808,6.088a.552.552,0,0,1-.394-.164.561.561,0,0,1,0-.789l3.721-3.721a.558.558,0,0,1,.789.789L17.2,5.924A.552.552,0,0,1,16.808,6.088Z" transform="translate(-3.838 -0.001)" fill="#fff"/>
  </g>
</svg>