<svg xmlns="http://www.w3.org/2000/svg" width="16" height="17.191" viewBox="0 0 16 17.191">
  <g id="Iconly_Light-Outline_Setting" data-name="Iconly/Light-Outline/Setting" transform="translate(-2 -2)">
    <g id="Setting" transform="translate(2 2)">
      <path id="Combined-Shape" d="M8.518,1a2.206,2.206,0,0,1,2.209,2.272.886.886,0,0,0,.125.423.956.956,0,0,0,1.313.344,2.216,2.216,0,0,1,3.02.811l.517.9a.706.706,0,0,1,.035.071A2.218,2.218,0,0,1,14.9,8.759a.948.948,0,0,0-.352.349.974.974,0,0,0-.1.733.947.947,0,0,0,.448.583,2.2,2.2,0,0,1,.8,3.017l-.551.918a2.211,2.211,0,0,1-3.009.8.988.988,0,0,0-.463-.129h0a.96.96,0,0,0-.665.28.949.949,0,0,0-.28.681,2.215,2.215,0,0,1-2.21,2.2H7.479a2.212,2.212,0,0,1-2.21-2.209.893.893,0,0,0-.125-.441.95.95,0,0,0-1.308-.358,2.209,2.209,0,0,1-3.022-.85L.295,13.44a2.205,2.205,0,0,1,.8-3.008.965.965,0,0,0,0-1.672A2.214,2.214,0,0,1,.294,5.746l.563-.923a2.208,2.208,0,0,1,3.005-.8.908.908,0,0,0,.458.13A.968.968,0,0,0,5.277,3.2,2.2,2.2,0,0,1,7.479,1Zm0,1.244H7.479a.955.955,0,0,0-.957.962A2.221,2.221,0,0,1,4.312,5.4a2.141,2.141,0,0,1-1.078-.3.966.966,0,0,0-1.308.362l-.562.923a.963.963,0,0,0,.358,1.3,2.209,2.209,0,0,1,0,3.826.959.959,0,0,0-.349,1.307l.524.9a.967.967,0,0,0,1.322.385,2.2,2.2,0,0,1,1.663-.22,2.214,2.214,0,0,1,1.337,1.03,2.127,2.127,0,0,1,.295,1.062.967.967,0,0,0,.966.972h1.04a.966.966,0,0,0,.966-.96A2.2,2.2,0,0,1,11.7,13.781a2.259,2.259,0,0,1,1.064.294.971.971,0,0,0,1.319-.349l.551-.918a.959.959,0,0,0-.353-1.3,2.188,2.188,0,0,1-1.03-1.342,2.216,2.216,0,0,1,.225-1.675,2.19,2.19,0,0,1,.806-.8.967.967,0,0,0,.346-1.309.463.463,0,0,1-.029-.057l-.486-.843a.967.967,0,0,0-1.316-.356,2.2,2.2,0,0,1-3.01-.788,2.119,2.119,0,0,1-.3-1.067.99.99,0,0,0-.273-.725A.969.969,0,0,0,8.518,2.245ZM8,6.787A2.809,2.809,0,1,1,5.193,9.6,2.813,2.813,0,0,1,8,6.787ZM8,8.031A1.565,1.565,0,1,0,9.567,9.6,1.567,1.567,0,0,0,8,8.031Z" transform="translate(0 -1)" fill="#fff"/>
    </g>
  </g>
</svg>