<svg xmlns="http://www.w3.org/2000/svg" width="16" height="14.569" viewBox="0 0 16 14.569">
  <g id="Iconly_Light-Outline_Swap" data-name="Iconly/Light-Outline/Swap" transform="translate(-2.083 -3.082)">
    <g id="Swap" transform="translate(2.083 3.082)">
      <path id="Combined-Shape" d="M12.139,2.3a.613.613,0,0,1,.607.53l.006.083v9.641l2.285-2.294a.613.613,0,0,1,.928.8l-.059.069-3.332,3.347a.666.666,0,0,1-.062.054l.062-.054a.615.615,0,0,1-.1.079l-.037.022-.036.019-.036.016a.48.48,0,0,1-.048.017l-.029.008a.5.5,0,0,1-.053.011l-.026,0a.512.512,0,0,1-.06,0h-.024l-.06,0,.072,0a.617.617,0,0,1-.1-.008.485.485,0,0,1-.053-.011l-.028-.008a.486.486,0,0,1-.052-.018l-.027-.012a.435.435,0,0,1-.042-.021L11.8,14.55l-.028-.019-.007-.006a.616.616,0,0,1-.061-.054h0L8.373,11.124a.613.613,0,0,1,.8-.924l.069.059,2.285,2.3V2.913A.613.613,0,0,1,12.139,2.3ZM4.028.083H4.04l.06,0-.072,0a.617.617,0,0,1,.1.008A.482.482,0,0,1,4.178.1L4.209.11a.466.466,0,0,1,.047.016L4.29.141l.039.02.032.02L4.393.2l.069.06L7.794,3.61a.613.613,0,0,1-.8.924l-.069-.059L4.64,2.178v9.643a.613.613,0,0,1-1.22.083l-.006-.083V2.179L1.13,4.474a.613.613,0,0,1-.8.061L.264,4.476a.613.613,0,0,1-.061-.8L.262,3.61,3.593.263,3.63.23,3.656.209,3.593.263a.616.616,0,0,1,.1-.079L3.727.161,3.763.142,3.8.127A.48.48,0,0,1,3.847.109L3.878.1l.05-.011.03,0a.5.5,0,0,1,.058,0Z" transform="translate(-0.083 -0.082)" fill="#fff"/>
    </g>
  </g>
</svg>