<svg xmlns="http://www.w3.org/2000/svg" width="13.777" height="13.77" viewBox="0 0 13.777 13.77">
  <g id="monitor-mobbile" transform="translate(-1.25 -1.78)">
    <path id="Path_8959" data-name="Path 8959" d="M7.145,12.5H4.591c-2.56,0-3.341-.781-3.341-3.341V5.121c0-2.56.781-3.341,3.341-3.341h7.094c2.56,0,3.341.781,3.341,3.341a.505.505,0,0,1-1.011,0c0-1.981-.35-2.331-2.331-2.331H4.591c-1.981,0-2.331.35-2.331,2.331V9.163c0,1.981.35,2.331,2.331,2.331H7.145a.505.505,0,0,1,0,1.011Z" fill="#fff"/>
    <path id="Path_8960" data-name="Path 8960" d="M9.755,20.252a.509.509,0,0,1-.505-.505V16.7a.505.505,0,1,1,1.011,0v3.052A.5.5,0,0,1,9.755,20.252Z" transform="translate(-2.611 -4.702)" fill="#fff"/>
    <path id="Path_8961" data-name="Path 8961" d="M7.145,13.211H1.755a.505.505,0,1,1,0-1.011H7.145a.505.505,0,1,1,0,1.011Z" transform="translate(0 -3.4)" fill="#fff"/>
    <path id="Path_8962" data-name="Path 8962" d="M8.692,21.731H6.5a.505.505,0,1,1,0-1.011h2.2a.505.505,0,1,1,0,1.011Z" transform="translate(-1.547 -6.181)" fill="#fff"/>
    <g id="Group_7345" data-name="Group 7345" transform="translate(3.358 1.383)">
      <path id="Path_8954" data-name="Path 8954" d="M11.95,14.073h-1.4a1.835,1.835,0,0,1-1.8-1.86.558.558,0,1,1,1.116,0,.716.716,0,0,0,.685.744h1.4a.552.552,0,0,0,.521-.58c0-.4-.112-.461-.365-.551l-2.24-.781A1.526,1.526,0,0,1,8.75,9.437a1.675,1.675,0,0,1,1.637-1.7h1.4a1.835,1.835,0,0,1,1.8,1.86.558.558,0,1,1-1.116,0,.716.716,0,0,0-.685-.744h-1.4a.552.552,0,0,0-.521.58c0,.4.112.461.365.551l2.24.781a1.526,1.526,0,0,1,1.116,1.607A1.67,1.67,0,0,1,11.95,14.073Z" transform="translate(-1.918 -1.66)" fill="#fff"/>
      <path id="Path_8955" data-name="Path 8955" d="M11.808,14.564a.562.562,0,0,1-.558-.558v-6.7a.558.558,0,1,1,1.116,0v6.7A.562.562,0,0,1,11.808,14.564Z" transform="translate(-2.558 -1.407)" fill="#fff"/>
    </g>
  </g>
</svg>