<svg width="24" height="24" viewBox="0 0 24 24" fill="none" xmlns="http://www.w3.org/2000/svg">
<path d="M21.9361 10.8481C21.8936 10.7464 21.8328 10.6539 21.7553 10.5764L19.2562 8.07725C18.9303 7.75225 18.4037 7.75225 18.0778 8.07725C17.752 8.40307 17.752 8.93056 18.0778 9.25556L19.1553 10.3331H14.5003C14.0395 10.3331 13.667 10.7064 13.667 11.1664C13.667 11.6264 14.0395 11.9997 14.5003 11.9997H19.1553L18.0778 13.0772C17.752 13.403 17.752 13.9305 18.0778 14.2555C18.2403 14.4188 18.4536 14.4997 18.667 14.4997C18.8803 14.4997 19.0937 14.4189 19.2562 14.2555L21.7553 11.7563C21.8328 11.6797 21.8936 11.5872 21.9361 11.4847C22.0203 11.2814 22.0203 11.0514 21.9361 10.8481Z" fill="#E42C66"/>
<path d="M16.1666 13.6667C15.7058 13.6667 15.3333 14.04 15.3333 14.5V18.6666H12V5.33331C12 4.96581 11.7583 4.64082 11.4058 4.535L8.51163 3.66668H15.3333V7.83335C15.3333 8.29335 15.7058 8.66667 16.1666 8.66667C16.6274 8.66667 16.9999 8.29335 16.9999 7.83335V2.83336C16.9999 2.37332 16.6274 2 16.1666 2H2.83332C2.80332 2 2.77664 2.0125 2.7475 2.01582C2.70832 2.02 2.6725 2.02664 2.635 2.03582C2.5475 2.05832 2.46832 2.0925 2.39418 2.13914C2.37586 2.15082 2.35336 2.15164 2.33586 2.16496C2.32914 2.17 2.32664 2.17918 2.31996 2.18418C2.22914 2.25582 2.15332 2.34332 2.09832 2.4475C2.08664 2.47 2.08414 2.49418 2.075 2.5175C2.04832 2.58082 2.01918 2.6425 2.00918 2.7125C2.005 2.7375 2.0125 2.76082 2.01168 2.785C2.01086 2.80168 2 2.81668 2 2.83332V19.5C2 19.8975 2.28082 20.2391 2.67 20.3166L11.0033 21.9833C11.0575 21.995 11.1125 22 11.1666 22C11.3574 22 11.5449 21.9342 11.6949 21.8108C11.8874 21.6525 11.9999 21.4166 11.9999 21.1666V20.3333H16.1666C16.6274 20.3333 16.9999 19.96 16.9999 19.5V14.5C16.9999 14.04 16.6274 13.6667 16.1666 13.6667Z" fill="#E42C66"/>
</svg>
