<svg xmlns="http://www.w3.org/2000/svg" width="19.508" height="20" viewBox="0 0 19.508 20"><defs><style>.a{fill:#878b9a;}</style></defs><path class="a" d="M-1.608-9.773a2.907,2.907,0,0,1-3.018-2.774v-.075h-6.737L-8.328-16.4v-5.052a5.864,5.864,0,0,1,.522-2.414A6.2,6.2,0,0,1-6.371-25.83a6.855,6.855,0,0,1,2.137-1.334l.114-.03-.016-.255A2.22,2.22,0,0,1-3.4-29.1a2.633,2.633,0,0,1,1.794-.675A2.693,2.693,0,0,1,.186-29.1,2.22,2.22,0,0,1,.92-27.449L.9-27.194l.114.03A6.855,6.855,0,0,1,3.155-25.83,6.462,6.462,0,0,1,4.59-23.866a5.863,5.863,0,0,1,.522,2.414V-16.4l3.034,3.778H1.426v.075A2.922,2.922,0,0,1-1.608-9.773Zm0-17.871a5.8,5.8,0,0,1,.881.06.849.849,0,0,0-.881-.69.849.849,0,0,0-.881.69A5.8,5.8,0,0,1-1.608-27.644ZM-8.132-14.121H4.917L3.481-15.9v-5.547A4.484,4.484,0,0,0,2-24.78a5.35,5.35,0,0,0-3.6-1.364,5.35,5.35,0,0,0-3.6,1.364A4.484,4.484,0,0,0-6.7-21.452V-15.9Zm5.138,1.5v.075a1.333,1.333,0,0,0,1.386,1.274,1.5,1.5,0,0,0,.995-.375,1.21,1.21,0,0,0,.408-.9v-.075Z" transform="translate(11.362 29.773)"/></svg>